# xmcd CD database file
#
# Track frame offsets:
#	150
#	53808
#	96644
#	154525
#	182335
#	256128
#
# Disc length: 4330 seconds
#
# Revision: 0
# Processed by: cddbd v1.5.1PL2 Copyright (c) Steve Scherf et al.
# Submitted via: CDex 1.51
#
DISCID=4310e806
DTITLE=Phil Lesh and Friends - Phil Lesh and Friends Boca Raton, FL 6.22.06 - Disc 2
DYEAR=2006
DGENRE=Rhythmic Soul
TTITLE0=St. Stephen
TTITLE1=Slipknot!
TTITLE2=Shakedown Street
TTITLE3=Jam
TTITLE4=Dark Star
TTITLE5=Eyes of the World
EXTD=YEAR: 2006
EXTT0=
EXTT1=
EXTT2=
EXTT3=
EXTT4=
EXTT5=
PLAYORDER=
